<svg xmlns="http://www.w3.org/2000/svg" viewBox="0 0 38.25 58.71"><defs><style>.cls-1,.cls-2{fill:#5b509d;}.cls-2{fill-rule:evenodd;}</style></defs><title>faviconAtivo 1</title><g id="Camada_2" data-name="Camada 2"><g id="Camada_1-2" data-name="Camada 1"><path class="cls-1" d="M37.71,6.39c-.51-.78-1.25-.8-2.09-.82h-.53c-.34,0-.74,0-.94-.28A2.82,2.82,0,0,1,34,3.78c0-.17,0-.33,0-.46,0-1.23-.11-2.54-.58-3S32,.06,31,.11l-.91,0H9c-.42,0-.86,0-1.3-.07A6.54,6.54,0,0,0,5.47.13c-.85.29-.91,1.81-1,3.24v.08c0,1.18-.34,2.09-1.31,2C2.07,5.34,1,5.31.44,6.33-.16,7.54,0,8.8.18,11.07c0,.32.07.66.1,1H38c0-.27,0-.53.07-.79C38.27,9.27,38.43,7.5,37.71,6.39Z"/><path class="cls-2" d="M3.22,14.35Q4.11,26.32,5,38.3H5q.48,6.49.95,13h1.2c.09.68.18,1.52.28,2.4.2,1.79.42,3.77.61,5h.13c1.23-.45,9.71-4.07,9.71-18.51a.49.49,0,0,1,0-.12h-2.1a.42.42,0,0,1-.28-.1.45.45,0,0,1-.16-.24,10.34,10.34,0,0,1-.49-1.55,6.68,6.68,0,0,0-2.8,3,6,6,0,0,1-.21-4.12,6.11,6.11,0,0,1,2.52-3.3,17.13,17.13,0,0,1,4.44-11.41l0,0a.46.46,0,0,1,.3-.11.39.39,0,0,1,.18,0,.42.42,0,0,1,.16.11,16.72,16.72,0,0,1,4.39,11.48,5.85,5.85,0,0,1,2.3,7.42,6.63,6.63,0,0,0-2.79-3A6.35,6.35,0,0,1,23,39.74c-.07.21-.2.34-.34.34H20.37a.17.17,0,0,1,0,.07h0v.07c0,14.84,9.05,18.21,9.81,18.47h.26c.07-1.17.28-2.78.49-4.36.15-1.08.29-2.14.38-3h1.22q.59-8.19,1.19-16.36h0c.51-7,1-13.93,1.52-20.93H3.3C3.21,14,3.22,14.19,3.22,14.35Zm15.91,7.89Z"/></g></g></svg>